<svg width="24" height="25" viewBox="0 0 24 25" fill="none" xmlns="http://www.w3.org/2000/svg">
<path d="M9.47062 14.0254L1.506 22.3222V18.1992C1.506 17.7664 1.16962 17.4148 0.753 17.4148C0.33675 17.4148 0 17.766 0 18.1992V24.2156C0 24.3176 0.019875 24.4191 0.058125 24.5152C0.13425 24.7074 0.280875 24.8597 0.465375 24.9398C0.55725 24.9793 0.655125 25 0.753 25H6.52912C6.945 25 7.28213 24.6492 7.28213 24.2156C7.28213 23.782 6.94537 23.4312 6.52912 23.4312H2.57063L10.5349 15.1344C10.8289 14.8281 10.8289 14.3316 10.5349 14.0254C10.2409 13.7191 9.76462 13.7191 9.47062 14.0254Z" fill="#1D1D1B"/>
<path d="M23.9419 0.484766C23.8658 0.292969 23.7191 0.140234 23.5346 0.0601562C23.4428 0.0207031 23.3449 0 23.247 0H17.4709C17.055 0 16.7179 0.350781 16.7179 0.784375C16.7179 1.21797 17.0546 1.56875 17.4709 1.56875H21.4294L13.4651 9.86563C13.1711 10.1719 13.1711 10.6684 13.4651 10.9746C13.6121 11.1277 13.8049 11.2047 13.9976 11.2047C14.1904 11.2047 14.3828 11.1277 14.5298 10.9746L22.494 2.67773V6.80078C22.494 7.23359 22.8304 7.58516 23.247 7.58516C23.6629 7.58516 24 7.23398 24 6.80078V0.784375C24 0.682422 23.9801 0.580469 23.9419 0.484766V0.484766Z" fill="#1D1D1B"/>
</svg>
