<svg width="30" height="30" viewBox="0 0 30 30" fill="none" xmlns="http://www.w3.org/2000/svg">
<path d="M28 11.5413V15.2796C27.9979 17.3548 27.2597 19.3444 25.9474 20.8118C24.6351 22.2792 22.8559 23.1046 21 23.107H3.91419L6.70706 19.9839L5.29294 18.4026L2.5 21.5256L2.22406 21.8341L0.12619 24.18L4.75256 30L6.24744 28.5142L3.72688 25.3434H21C25.9625 25.3434 30 20.8286 30 15.2796V9.30493L28 11.5413Z" fill="black" fill-opacity="0.54"/>
<path d="M2 14.7204C2.0021 12.6452 2.74027 10.6556 4.05257 9.18822C5.36487 7.7208 7.14413 6.89537 9 6.89302H26.0858L23.2929 10.0161L24.7071 11.5974L27.5 8.47437L27.7573 8.18672L29.8738 5.81997L25.2474 0L23.7526 1.48581L26.2731 4.65662H9C4.0375 4.65662 0 9.17136 0 14.7204V20.7159L2 18.4795V14.7204Z" fill="black" fill-opacity="0.54"/>
<path d="M2 14.7204C2.0021 12.6452 2.74027 10.6556 4.05257 9.18822C5.36487 7.7208 7.14413 6.89537 9 6.89302H26.0858L23.2929 10.0161L24.7071 11.5974L27.5 8.47437L27.7573 8.18672L29.8738 5.81997L25.2474 0L23.7526 1.48581L26.2731 4.65662H9C4.0375 4.65662 0 9.17136 0 14.7204V20.7159L2 18.4795V14.7204Z" fill="black" fill-opacity="0.41"/>
</svg>
