<svg width="15" height="17" viewBox="0 0 15 17" fill="none" xmlns="http://www.w3.org/2000/svg">
<path d="M13.2483 7.71799L14 8.15583V7.28594V0.609352C14.0002 0.608562 14.0008 0.606849 14.0022 0.604095C14.0055 0.597717 14.0142 0.584267 14.0342 0.568024C14.0769 0.533497 14.1535 0.501578 14.25 0.501578C14.3465 0.501578 14.4231 0.533497 14.4658 0.568024C14.4858 0.584267 14.4945 0.597717 14.4978 0.604095C14.4992 0.606847 14.4998 0.60856 14.5 0.609351V16.3906C14.4998 16.3914 14.4992 16.3932 14.4978 16.3959C14.4945 16.4023 14.4858 16.4157 14.4658 16.432C14.4231 16.4665 14.3465 16.4984 14.25 16.4984C14.1535 16.4984 14.0769 16.4665 14.0342 16.432C14.0142 16.4157 14.0055 16.4023 14.0022 16.3959C14.0008 16.3932 14.0002 16.3914 14 16.3906V9.71406V8.84417L13.2483 9.28201L0.940832 16.451L0.937967 16.4527C0.898017 16.4764 0.842553 16.4949 0.777542 16.4991C0.712614 16.5033 0.650557 16.4924 0.600151 16.4716C0.549582 16.4508 0.521566 16.4248 0.509069 16.4082C0.503075 16.4003 0.50094 16.395 0.5003 16.3932C0.500151 16.3927 0.500058 16.3924 0.500003 16.3922V16.3914V0.608608H0.500005L0.500002 0.607776C0.500058 0.607569 0.500151 0.607256 0.5003 0.606826C0.50094 0.604976 0.503074 0.599723 0.509069 0.591784C0.521566 0.57523 0.549583 0.549241 0.600151 0.528391C0.650558 0.507607 0.712615 0.496681 0.777542 0.500891C0.842553 0.505107 0.898017 0.523648 0.937967 0.547276L0.937961 0.547286L0.940838 0.548961L13.2483 7.71799Z" fill="black" fill-opacity="0.01" stroke="black"/>
</svg>
