<svg width="15" height="17" viewBox="0 0 15 17" fill="none" xmlns="http://www.w3.org/2000/svg">
<path d="M14.25 0.00157811C14.0511 0.00157811 13.8603 0.0655329 13.7197 0.179373C13.579 0.293213 13.5 0.447614 13.5 0.608608V7.28594L1.1925 0.116914C1.08055 0.0507005 0.948111 0.0109019 0.809897 0.00193921C0.671683 -0.00702348 0.533105 0.0152007 0.409556 0.0661427C0.286007 0.117085 0.182324 0.19475 0.110025 0.290512C0.0377266 0.386274 -0.000357866 0.496383 2.53437e-06 0.608608V16.3914C-0.000357866 16.5036 0.0377266 16.6137 0.110025 16.7095C0.182324 16.8053 0.286007 16.8829 0.409556 16.9339C0.533105 16.9848 0.671683 17.007 0.809897 16.9981C0.948111 16.9891 1.08055 16.9493 1.1925 16.8831L13.5 9.71406V16.3914C13.5 16.5524 13.579 16.7068 13.7197 16.8206C13.8603 16.9345 14.0511 16.9984 14.25 16.9984C14.4489 16.9984 14.6397 16.9345 14.7803 16.8206C14.921 16.7068 15 16.5524 15 16.3914V0.608608C15 0.447614 14.921 0.293213 14.7803 0.179373C14.6397 0.0655329 14.4489 0.00157811 14.25 0.00157811V0.00157811Z" fill="black"/>
</svg>
