<svg width="40" height="40" viewBox="0 0 40 40" fill="none" xmlns="http://www.w3.org/2000/svg">
<path d="M20 0C8.95437 0 0 8.95437 0 20C0 31.0456 8.95437 40 20 40C31.0456 40 40 31.0456 40 20C40 8.95437 31.0456 0 20 0ZM20 38.75C9.645 38.75 1.25 30.355 1.25 20.0006C1.25 9.645 9.645 1.25 20 1.25C30.355 1.25 38.75 9.645 38.75 20.0006C38.75 30.355 30.355 38.75 20 38.75Z" fill="black"/>
<path d="M25.6931 18.9631L18.1931 13.97C17.81 13.715 17.3169 13.6906 16.91 13.9075C16.5037 14.1244 16.25 14.5469 16.25 15.0081V24.9956C16.25 25.4562 16.5037 25.8781 16.9106 26.0962C17.3169 26.3137 17.81 26.2906 18.1938 26.0337L25.6938 21.0406C26.0413 20.8087 26.25 20.4187 26.25 20.0019C26.25 19.5844 26.0413 19.195 25.6931 18.9631ZM24.25 20.8887L18.3819 24.505C18.0669 24.7144 17.5 24.7244 17.5 24.7244C17.5 24.7244 17.5 24.1431 17.5 23.7662V16.2544C17.5 15.8769 17.5 15.2175 17.5 15.2175C17.5 15.2175 18.0669 15.1887 18.3819 15.3969L24.25 19.2675C24.5356 19.4569 24.7069 19.6975 24.7069 20.0387C24.7069 20.3794 24.5356 20.6994 24.25 20.8887Z" fill="black"/>
</svg>
