<svg width="40" height="40" viewBox="0 0 40 40" fill="none" xmlns="http://www.w3.org/2000/svg">
<g clip-path="url(#clip0_3:104)">
<path d="M20 40C16.0444 40 12.1776 38.827 8.88857 36.6294C5.59959 34.4317 3.03614 31.3082 1.52239 27.6536C0.0086351 23.9991 -0.387432 19.9778 0.384273 16.0982C1.15598 12.2186 3.06079 8.65489 5.85784 5.85784C8.65489 3.06079 12.2186 1.15598 16.0982 0.384273C19.9778 -0.387432 23.9991 0.0086351 27.6536 1.52239C31.3082 3.03614 34.4317 5.59959 36.6294 8.88857C38.827 12.1776 40 16.0444 40 20C39.9942 25.3025 37.8852 30.3862 34.1357 34.1357C30.3862 37.8852 25.3025 39.9942 20 40V40ZM20 1.24998C16.2916 1.24998 12.6665 2.34965 9.58304 4.40992C6.49962 6.4702 4.09638 9.39855 2.67724 12.8247C1.25809 16.2508 0.886781 20.0208 1.61025 23.6579C2.33373 27.2951 4.11949 30.636 6.74173 33.2582C9.36396 35.8805 12.7049 37.6662 16.342 38.3897C19.9792 39.1132 23.7492 38.7419 27.1753 37.3227C30.6014 35.9036 33.5298 33.5003 35.59 30.4169C37.6503 27.3335 38.75 23.7084 38.75 20C38.7442 15.0289 36.7669 10.2632 33.2518 6.74812C29.7368 3.23307 24.971 1.25577 20 1.24998V1.24998Z" fill="black"/>
<path d="M14.6187 30.3125C14.453 30.3125 14.294 30.2467 14.1768 30.1294C14.0596 30.0122 13.9937 29.8533 13.9937 29.6875V10.3125C13.9937 10.1467 14.0596 9.98777 14.1768 9.87056C14.294 9.75335 14.453 9.6875 14.6187 9.6875C14.7845 9.6875 14.9435 9.75335 15.0607 9.87056C15.1779 9.98777 15.2437 10.1467 15.2437 10.3125V29.6875C15.2437 29.8533 15.1779 30.0122 15.0607 30.1294C14.9435 30.2467 14.7845 30.3125 14.6187 30.3125Z" fill="black"/>
<path d="M25.3813 30.3125C25.2155 30.3125 25.0565 30.2467 24.9393 30.1294C24.8221 30.0122 24.7563 29.8533 24.7563 29.6875V10.3125C24.7563 10.1467 24.8221 9.98777 24.9393 9.87056C25.0565 9.75335 25.2155 9.6875 25.3813 9.6875C25.547 9.6875 25.706 9.75335 25.8232 9.87056C25.9404 9.98777 26.0063 10.1467 26.0063 10.3125V29.6875C26.0063 29.8533 25.9404 30.0122 25.8232 30.1294C25.706 30.2467 25.547 30.3125 25.3813 30.3125Z" fill="black"/>
</g>
<defs>
<clipPath id="clip0_3:104">
<rect width="40" height="40" fill="white"/>
</clipPath>
</defs>
</svg>
