<svg width="15" height="18" viewBox="0 0 15 18" fill="none" xmlns="http://www.w3.org/2000/svg">
<path d="M1.75166 9.2872L0.999999 8.84936V9.71925L0.999999 16.3958C0.999791 16.3966 0.999219 16.3983 0.99781 16.4011C0.994546 16.4075 0.985834 16.4209 0.965766 16.4372C0.923107 16.4717 0.846517 16.5036 0.749999 16.5036C0.653482 16.5036 0.576892 16.4717 0.534233 16.4372C0.514165 16.4209 0.505452 16.4075 0.502189 16.4011C0.50078 16.3983 0.500209 16.3966 0.5 16.3958L0.5 0.614538C0.500209 0.613747 0.50078 0.612034 0.502189 0.609282C0.505453 0.602903 0.514165 0.589453 0.534233 0.573212C0.576891 0.538685 0.653481 0.506765 0.749999 0.506765C0.846518 0.506765 0.923108 0.538685 0.965766 0.573212C0.985834 0.589453 0.994546 0.602903 0.99781 0.609282C0.999219 0.612036 0.999791 0.613749 0.999999 0.61454V7.29113V8.16101L1.75166 7.72318L14.0592 0.554159L14.062 0.552464C14.102 0.528835 14.1574 0.510294 14.2225 0.506079C14.2874 0.501869 14.3494 0.512794 14.3998 0.533579C14.4504 0.55443 14.4784 0.580418 14.4909 0.59697C14.4969 0.60491 14.4991 0.610163 14.4997 0.612013C14.4998 0.612444 14.4999 0.612757 14.5 0.612963V0.613796L14.5 16.3966H14.5L14.5 16.3974C14.4999 16.3976 14.4998 16.3979 14.4997 16.3984C14.4991 16.4002 14.4969 16.4055 14.4909 16.4134C14.4784 16.43 14.4504 16.4559 14.3998 16.4768C14.3494 16.4976 14.2874 16.5085 14.2225 16.5043C14.1574 16.5001 14.102 16.4815 14.062 16.4579L14.062 16.4579L14.0592 16.4562L1.75166 9.2872Z" stroke="black"/>
</svg>
