<svg width="15" height="18" viewBox="0 0 15 18" fill="none" xmlns="http://www.w3.org/2000/svg">
<path d="M0.749999 17.0036C0.948912 17.0036 1.13968 16.9397 1.28033 16.8258C1.42098 16.712 1.5 16.5576 1.5 16.3966L1.5 9.71925L13.8075 16.8883C13.9194 16.9545 14.0519 16.9943 14.1901 17.0032C14.3283 17.0122 14.4669 16.99 14.5904 16.939C14.714 16.8881 14.8177 16.8104 14.89 16.7147C14.9623 16.6189 15.0004 16.5088 15 16.3966L15 0.613796C15.0004 0.501571 14.9623 0.391461 14.89 0.295699C14.8177 0.199937 14.714 0.122272 14.5904 0.0713302C14.4669 0.0203881 14.3283 -0.00183586 14.1901 0.00712683C14.0519 0.0160895 13.9194 0.0558883 13.8075 0.122102L1.5 7.29113V0.613796C1.5 0.452801 1.42098 0.2984 1.28033 0.18456C1.13968 0.0707199 0.948912 0.00676559 0.749999 0.00676559C0.551087 0.00676559 0.360321 0.0707199 0.219669 0.18456C0.0790166 0.2984 -4.76837e-07 0.452801 -4.76837e-07 0.613796L-4.76837e-07 16.3966C-4.76837e-07 16.5576 0.0790166 16.712 0.219669 16.8258C0.360321 16.9397 0.551087 17.0036 0.749999 17.0036V17.0036Z" fill="black"/>
</svg>
