<svg width="30" height="30" viewBox="0 0 30 30" fill="none" xmlns="http://www.w3.org/2000/svg">
<path d="M11.3873 11.651L12.0502 10.7563L7.22531 4.24368H0V5.50913H6.83719L11.3873 11.651Z" fill="black" fill-opacity="0.54"/>
<path d="M25.9186 0.894672L28.3997 4.24368H21.8372L6.83719 24.4909H0V25.7563H7.22531L22.2253 5.50913H28.3997L25.9186 8.85814L26.6503 9.75282L30 5.32374V4.42907L26.6503 0L25.9186 0.894672Z" fill="black" fill-opacity="0.54"/>
<path d="M25.9186 21.1418L28.3997 24.4909H22.2253L17.6751 18.349L17.0123 19.2437L21.8372 25.7563H28.3997L25.9186 29.1053L26.6503 30L30 25.5709V24.6762L26.6503 20.2472L25.9186 21.1418Z" fill="black" fill-opacity="0.54"/>
</svg>
