<svg width="30" height="30" viewBox="0 0 30 30" fill="none" xmlns="http://www.w3.org/2000/svg">
<path d="M7.23895 5.21149L7.08903 5.00913H6.83719H0.5V4.74368H6.97347L11.4279 10.7563L11.3873 10.811L7.23895 5.21149Z" fill="black" stroke="black"/>
<path d="M26.6349 0.808574L29.5 4.59686V5.15596L26.6349 8.94424L26.5521 8.84296L28.8014 5.80677L29.3924 5.00913H28.3997H22.2253H21.9735L21.8236 5.21149L6.97347 25.2563H0.5V24.9909H6.83719H7.08903L7.23895 24.7885L22.089 4.74368H28.3997H29.3924L28.8014 3.94604L26.5521 0.909854L26.6349 0.808574Z" fill="black" stroke="black"/>
<path d="M17.6751 19.1889L21.8235 24.7885L21.9735 24.9909H22.2253H28.3997H29.3924L28.8014 24.1932L26.5521 21.157L26.6349 21.0557L29.5 24.844V25.4031L26.6349 29.1914L26.5521 29.0901L28.8014 26.0539L29.3924 25.2563H28.3997H22.089L17.6346 19.2437L17.6751 19.1889Z" fill="black" stroke="black"/>
</svg>
