<svg width="50" height="50" viewBox="0 0 50 50" fill="none" xmlns="http://www.w3.org/2000/svg">
<path d="M11.7971 8.88424L11.6472 8.68188H11.3953H0.5V7.5728H11.7903L19.4613 17.9272L18.9789 18.5784L11.7971 8.88424Z" fill="black" stroke="black"/>
<path d="M44.4018 0.808574L49.5 7.54957V8.70512L44.4018 15.4461L43.8312 14.7484L47.7346 9.47953L48.3255 8.68189H47.3328H37.0422H36.7903L36.6404 8.88425L11.7903 42.4272H0.5V41.3181H11.3953H11.6472L11.7971 41.1157L36.6472 7.5728H47.3328H48.3255L47.7346 6.77516L43.8312 1.5063L44.4018 0.808574Z" fill="black" stroke="black"/>
<path d="M29.4586 31.4216L36.6404 41.1157L36.7903 41.3181H37.0422H47.3328H48.3255L47.7345 40.5205L43.8311 35.2516L44.4018 34.5539L49.5 41.2949V42.4504L44.4018 49.1914L43.8311 48.4937L47.7345 43.2248L48.3255 42.4272H47.3328H36.6471L28.9761 32.0728L29.4586 31.4216Z" fill="black" stroke="black"/>
</svg>
