<svg width="50" height="50" viewBox="0 0 50 50" fill="none" xmlns="http://www.w3.org/2000/svg">
<path d="M46.6667 19.2356V25.4659C46.6632 28.9247 45.4329 32.2406 43.2457 34.6863C41.0585 37.132 38.0931 38.5077 35 38.5116H6.52365L11.1784 33.3065L8.82157 30.671L4.16667 35.876L3.70678 36.3902L0.21032 40.3001L7.92094 50L10.4124 47.5236L6.21146 42.239H35C43.2708 42.239 50 34.7144 50 25.4659V15.5082L46.6667 19.2356Z" fill="black"/>
<path d="M3.33333 24.5341C3.33683 21.0753 4.56712 17.7594 6.75429 15.3137C8.94145 12.868 11.9069 11.4923 15 11.4884H43.4763L38.8216 16.6935L41.1784 19.329L45.8333 14.124L46.2622 13.6445L49.7897 9.69995L42.0791 0L39.5876 2.47635L43.7885 7.76103H15C6.72916 7.76103 0 15.2856 0 24.5341V34.5265L3.33333 30.7992V24.5341Z" fill="black"/>
<path d="M3.33333 24.5341C3.33683 21.0753 4.56712 17.7594 6.75429 15.3137C8.94145 12.868 11.9069 11.4923 15 11.4884H43.4763L38.8216 16.6935L41.1784 19.329L45.8333 14.124L46.2622 13.6445L49.7897 9.69995L42.0791 0L39.5876 2.47635L43.7885 7.76103H15C6.72916 7.76103 0 15.2856 0 24.5341V34.5265L3.33333 30.7992V24.5341Z" fill="black"/>
</svg>
