<svg width="50" height="50" viewBox="0 0 50 50" fill="none" xmlns="http://www.w3.org/2000/svg">
<path d="M49.5 16.8174V25.4659C49.5 34.4922 42.9436 41.739 35 41.739H6.21146H5.17527L5.82006 42.5501L9.74254 47.4845L7.96471 49.2515L0.864124 40.319L4.07944 36.7235L4.07949 36.7235L4.53934 36.2094L4.53937 36.2094L8.82156 31.4211L10.5077 33.3065L6.15095 38.1783L5.40575 39.0116H6.52365H35L35.0006 39.0116C38.2453 39.0075 41.343 37.5639 43.6184 35.0196C45.8922 32.4771 47.163 29.0407 47.1667 25.4664V25.4659V19.4265L49.5 16.8174Z" stroke="black"/>
<path d="M2.83333 24.5336V24.5341V30.6082L0.5 33.2173V24.5341C0.5 15.5078 7.05637 8.26103 15 8.26103H43.7885H44.8247L44.1799 7.44989L40.2575 2.51552L42.0353 0.748464L49.1359 9.68098L45.8895 13.3112L45.8895 13.3112L45.4607 13.7906L45.4606 13.7906L41.1784 18.5789L39.4923 16.6935L43.849 11.8217L44.5942 10.9884H43.4763H15L14.9994 10.9884C11.7547 10.9925 8.65696 12.4361 6.38158 14.9804C4.10784 17.5229 2.83695 20.9593 2.83333 24.5336Z" stroke="black"/>
</svg>
