<svg width="20" height="29" viewBox="0 0 20 29" fill="none" xmlns="http://www.w3.org/2000/svg">
<path d="M17.7079 12.4084L18.5 12.9785V12.0026V1.0026C18.5 0.86999 18.5527 0.742814 18.6465 0.649046C18.7402 0.555278 18.8674 0.5026 19 0.5026C19.1326 0.5026 19.2598 0.555278 19.3536 0.649046C19.4473 0.742814 19.5 0.86999 19.5 1.0026V27.0026C19.5 27.1352 19.4473 27.2624 19.3536 27.3562C19.2598 27.4499 19.1326 27.5026 19 27.5026C18.8674 27.5026 18.7402 27.4499 18.6465 27.3562C18.5527 27.2624 18.5 27.1352 18.5 27.0026V16.0026V15.0267L17.7079 15.5968L1.29793 27.4068L1.295 27.4089C1.22037 27.4634 1.13207 27.4962 1.03993 27.5036C0.947789 27.511 0.855403 27.4927 0.773037 27.4507C0.69067 27.4088 0.621548 27.3448 0.57335 27.2659C0.525151 27.187 0.499761 27.0963 0.500003 27.0039V27.0026L0.500005 1.0026L0.500002 1.0013C0.499761 0.908862 0.525151 0.818167 0.57335 0.73929C0.621549 0.660413 0.690671 0.596441 0.773037 0.554481C0.855404 0.512521 0.947789 0.494215 1.03993 0.501598C1.13207 0.50898 1.22037 0.541761 1.295 0.5963L1.29499 0.596311L1.29794 0.598428L17.7079 12.4084Z" fill="black" fill-opacity="0.01" stroke="black"/>
</svg>
