<svg width="20" height="29" viewBox="0 0 20 29" fill="none" xmlns="http://www.w3.org/2000/svg">
<path d="M19 0.00259973C18.7348 0.00259973 18.4804 0.107957 18.2929 0.295493C18.1054 0.483029 18 0.737383 18 1.0026V12.0026L1.59 0.1926C1.44073 0.0835222 1.26415 0.0179594 1.07986 0.00319458C0.895577 -0.0115702 0.710806 0.025041 0.546074 0.108961C0.381342 0.192881 0.243099 0.320825 0.1467 0.47858C0.0503021 0.636334 -0.000477155 0.817724 3.37916e-06 1.0026V27.0026C-0.000477155 27.1875 0.0503021 27.3689 0.1467 27.5266C0.243099 27.6844 0.381342 27.8123 0.546074 27.8962C0.710806 27.9802 0.895577 28.0168 1.07986 28.002C1.26415 27.9872 1.44073 27.9217 1.59 27.8126L18 16.0026V27.0026C18 27.2678 18.1054 27.5222 18.2929 27.7097C18.4804 27.8972 18.7348 28.0026 19 28.0026C19.2652 28.0026 19.5196 27.8972 19.7071 27.7097C19.8946 27.5222 20 27.2678 20 27.0026V1.0026C20 0.737383 19.8946 0.483029 19.7071 0.295493C19.5196 0.107957 19.2652 0.00259973 19 0.00259973V0.00259973Z" fill="black"/>
</svg>
