<svg width="64" height="64" viewBox="0 0 64 64" fill="none" xmlns="http://www.w3.org/2000/svg">
<path d="M32 0C14.327 0 0 14.327 0 32C0 49.673 14.327 64 32 64C49.673 64 64 49.673 64 32C64 14.327 49.673 0 32 0ZM32 62C15.432 62 2 48.568 2 32.001C2 15.432 15.432 2 32 2C48.568 2 62 15.432 62 32.001C62 48.568 48.568 62 32 62Z" fill="black"/>
<path d="M41.109 30.341L29.109 22.352C28.496 21.944 27.707 21.905 27.056 22.252C26.406 22.599 26 23.275 26 24.013V39.993C26 40.73 26.406 41.405 27.057 41.754C27.707 42.102 28.496 42.065 29.11 41.654L41.11 33.665C41.666 33.294 42 32.67 42 32.003C42 31.335 41.666 30.712 41.109 30.341ZM38.8 33.422L29.411 39.208C28.907 39.543 28 39.559 28 39.559C28 39.559 28 38.629 28 38.026V26.007C28 25.403 28 24.348 28 24.348C28 24.348 28.907 24.302 29.411 24.635L38.8 30.828C39.257 31.131 39.531 31.516 39.531 32.062C39.531 32.607 39.257 33.119 38.8 33.422Z" fill="black"/>
</svg>
