<svg width="64" height="64" viewBox="0 0 64 64" fill="none" xmlns="http://www.w3.org/2000/svg">
<g clip-path="url(#clip0_3:18)">
<path d="M32 64C25.671 64 19.4841 62.1232 14.2217 58.607C8.95936 55.0908 4.85784 50.0931 2.43584 44.2459C0.0138345 38.3986 -0.619872 31.9645 0.614855 25.7571C1.84958 19.5497 4.89729 13.8478 9.37257 9.37257C13.8478 4.89729 19.5497 1.84958 25.7571 0.614855C31.9645 -0.619872 38.3986 0.0138345 44.2459 2.43584C50.0931 4.85784 55.0908 8.95936 58.607 14.2217C62.1232 19.4841 64 25.671 64 32C63.9907 40.4841 60.6163 48.618 54.6172 54.6172C48.618 60.6163 40.4841 63.9907 32 64V64ZM32 1.99998C26.0665 1.99998 20.2664 3.75945 15.3329 7.0559C10.3994 10.3523 6.55423 15.0377 4.2836 20.5195C2.01297 26.0013 1.41887 32.0333 2.57643 37.8527C3.73398 43.6721 6.59121 49.0176 10.7868 53.2132C14.9824 57.4088 20.3278 60.266 26.1473 61.4235C31.9667 62.5811 37.9987 61.987 43.4805 59.7164C48.9623 57.4457 53.6476 53.6006 56.9441 48.6671C60.2405 43.7336 62 37.9334 62 32C61.9907 24.0463 58.827 16.4211 53.203 10.797C47.5789 5.17293 39.9536 2.00925 32 1.99998V1.99998Z" fill="black"/>
<path d="M23.39 48.5C23.1248 48.5 22.8704 48.3946 22.6829 48.2071C22.4954 48.0196 22.39 47.7652 22.39 47.5V16.5C22.39 16.2348 22.4954 15.9804 22.6829 15.7929C22.8704 15.6054 23.1248 15.5 23.39 15.5C23.6552 15.5 23.9096 15.6054 24.0971 15.7929C24.2847 15.9804 24.39 16.2348 24.39 16.5V47.5C24.39 47.7652 24.2847 48.0196 24.0971 48.2071C23.9096 48.3946 23.6552 48.5 23.39 48.5Z" fill="black"/>
<path d="M40.61 48.5C40.3448 48.5 40.0904 48.3946 39.9029 48.2071C39.7153 48.0196 39.61 47.7652 39.61 47.5V16.5C39.61 16.2348 39.7153 15.9804 39.9029 15.7929C40.0904 15.6054 40.3448 15.5 40.61 15.5C40.8752 15.5 41.1296 15.6054 41.3171 15.7929C41.5046 15.9804 41.61 16.2348 41.61 16.5V47.5C41.61 47.7652 41.5046 48.0196 41.3171 48.2071C41.1296 48.3946 40.8752 48.5 40.61 48.5Z" fill="black"/>
</g>
<defs>
<clipPath id="clip0_3:18">
<rect width="64" height="64" fill="white"/>
</clipPath>
</defs>
</svg>
