<svg width="20" height="29" viewBox="0 0 20 29" fill="none" xmlns="http://www.w3.org/2000/svg">
<path d="M2.29206 15.5968L1.5 15.0267V16.0026V27.0026C1.5 27.1352 1.44732 27.2624 1.35355 27.3562C1.25978 27.4499 1.1326 27.5026 0.999996 27.5026C0.867388 27.5026 0.74021 27.4499 0.646442 27.3562C0.552675 27.2624 0.499996 27.1352 0.499996 27.0026L0.499996 1.0026C0.499996 0.869993 0.552675 0.742817 0.646442 0.64905C0.74021 0.555283 0.867386 0.502604 0.999996 0.502604C1.13261 0.502604 1.25978 0.555283 1.35355 0.64905C1.44732 0.742817 1.5 0.869993 1.5 1.0026V12.0026V12.9785L2.29206 12.4084L18.7021 0.598442L18.705 0.596304C18.7796 0.541765 18.8679 0.508984 18.9601 0.501602C19.0522 0.494219 19.1446 0.512524 19.227 0.554485C19.3093 0.596445 19.3785 0.660418 19.4266 0.739292C19.4748 0.818171 19.5002 0.908865 19.5 1.0013V1.0026L19.5 27.0026L19.5 27.0039C19.5002 27.0963 19.4748 27.187 19.4266 27.2659C19.3785 27.3448 19.3093 27.4088 19.227 27.4507C19.1446 27.4927 19.0522 27.511 18.9601 27.5036C18.8679 27.4962 18.7796 27.4634 18.705 27.4089L18.705 27.4089L18.7021 27.4068L2.29206 15.5968Z" stroke="black"/>
</svg>
