<svg width="20" height="29" viewBox="0 0 20 29" fill="none" xmlns="http://www.w3.org/2000/svg">
<path d="M0.999996 28.0026C1.26521 28.0026 1.51957 27.8972 1.7071 27.7097C1.89464 27.5222 2 27.2678 2 27.0026V16.0026L18.41 27.8126C18.5593 27.9217 18.7359 27.9872 18.9201 28.002C19.1044 28.0168 19.2892 27.9802 19.4539 27.8962C19.6187 27.8123 19.7569 27.6844 19.8533 27.5266C19.9497 27.3689 20.0005 27.1875 20 27.0026L20 1.0026C20.0005 0.817728 19.9497 0.636337 19.8533 0.478582C19.7569 0.320828 19.6187 0.192885 19.4539 0.108965C19.2892 0.0250449 19.1044 -0.0115662 18.9201 0.00319862C18.7359 0.0179634 18.5593 0.0835265 18.41 0.192604L2 12.0026V1.0026C2 0.737387 1.89464 0.483032 1.7071 0.295496C1.51957 0.10796 1.26521 0.00260353 0.999996 0.00260353C0.73478 0.00260353 0.480425 0.10796 0.292889 0.295496C0.105352 0.483032 -3.8147e-06 0.737387 -3.8147e-06 1.0026L-3.8147e-06 27.0026C-3.8147e-06 27.2678 0.105352 27.5222 0.292889 27.7097C0.480425 27.8972 0.73478 28.0026 0.999996 28.0026V28.0026Z" fill="black"/>
</svg>
