<svg width="50" height="50" viewBox="0 0 50 50" fill="none" xmlns="http://www.w3.org/2000/svg">
<path d="M18.9789 19.4183L20.0836 17.9272L12.0422 7.07281H0V9.18189H11.3953L18.9789 19.4183Z" fill="black" fill-opacity="0.54"/>
<path d="M43.1977 1.49112L47.3328 7.0728H36.3953L11.3953 40.8181H0V42.9272H12.0422L37.0422 9.18189H47.3328L43.1977 14.7636L44.4172 16.2547L50 8.87291V7.38179L44.4172 0L43.1977 1.49112Z" fill="black" fill-opacity="0.54"/>
<path d="M43.1976 35.2364L47.3328 40.8181H37.0422L29.4586 30.5817L28.3539 32.0728L36.3953 42.9272H47.3328L43.1976 48.5089L44.4172 50L50 42.6182V41.1271L44.4172 33.7453L43.1976 35.2364Z" fill="black" fill-opacity="0.54"/>
</svg>
