<svg width="64" height="64" viewBox="0 0 64 64" fill="none" xmlns="http://www.w3.org/2000/svg">
<path d="M28.6803 52.727V37.326C28.6803 37.064 28.6272 36.805 28.5252 36.559C28.3222 36.068 27.9313 35.675 27.4393 35.473C27.1943 35.37 26.9333 35.318 26.6723 35.318H11.2712C10.1602 35.318 9.26325 36.217 9.26325 37.326C9.26325 38.435 10.1592 39.334 11.2712 39.334H21.8263L0.58725 60.572C-0.19575 61.357 -0.19575 62.628 0.58725 63.412C0.98025 63.805 1.49325 64 2.00725 64C2.52125 64 3.03425 63.805 3.42725 63.412L24.6642 42.174V52.727C24.6642 53.835 25.5613 54.735 26.6723 54.735C27.7833 54.735 28.6803 53.835 28.6803 52.727V52.727Z" fill="#1D1D1B"/>
<path d="M60.5732 0.588L39.3352 21.827V11.273C39.3352 10.164 38.4372 9.265 37.3272 9.265C36.2172 9.265 35.3192 10.163 35.3192 11.273V26.673C35.3192 26.935 35.3722 27.194 35.4732 27.441C35.6772 27.931 36.0682 28.323 36.5592 28.527C36.8052 28.629 37.0662 28.681 37.3272 28.681H52.7282C53.8382 28.681 54.7362 27.783 54.7362 26.673C54.7362 25.565 53.8392 24.665 52.7282 24.665H42.1742L63.4122 3.427C64.1962 2.643 64.1962 1.372 63.4122 0.588C62.6282 -0.196 61.3562 -0.196 60.5732 0.588V0.588Z" fill="#1D1D1B"/>
</svg>
